GIL03_slow3_ik
nRows=3
nColumns=375

# SIMM Motion File Header:
name GIL03_slow3_ik
datacolumns 375
datarows 3
otherdata 1
range 1.20000000 1.21667000
endheader
time	pelvis_tx	pelvis_ty	pelvis_tz	pelvis_tilt	pelvis_list	pelvis_rotation	hip_flexion_r	hip_adduction_r	hip_rotation_r	knee_angle_r	ankle_angle_r	hip_flexion_l	hip_adduction_l	hip_rotation_l	knee_angle_l	ankle_angle_l	lumbar_extension	lumbar_bending	lumbar_rotation	subtalar_angle_r	mtp_angle_r	subtalar_angle_l	mtp_angle_l	asis_r_px	asis_r_py	asis_r_pz	asis_l_px	asis_l_py	asis_l_pz	midasis_px	midasis_py	midasis_pz	psis_r_px	psis_r_py	psis_r_pz	psis_l_px	psis_l_py	psis_l_pz	hip_r_px	hip_r_py	hip_r_pz	hip_l_px	hip_l_py	hip_l_pz	midhip_px	midhip_py	midhip_pz	epicondLat_r_px	epicondLat_r_py	epicondLat_r_pz	epicondMed_r_px	epicondMed_r_py	epicondMed_r_pz	thighwand_r_px	thighwand_r_py	thighwand_r_pz	upperleg1_r_px	upperleg1_r_py	upperleg1_r_pz	upperleg2_r_px	upperleg2_r_py	upperleg2_r_pz	malleolusLat_r_px	malleolusLat_r_py	malleolusLat_r_pz	malleolusMedv_r_px	malleolusMedv_r_py	malleolusMedv_r_pz	shankwand_r_px	shankwand_r_py	shankwand_r_pz	lowerleg1_r_px	lowerleg1_r_py	lowerleg1_r_pz	knee_r_px	knee_r_py	knee_r_pz	ankle_r_px	ankle_r_py	ankle_r_pz	toe_r_px	toe_r_py	toe_r_pz	epicondLat_l_px	epicondLat_l_py	epicondLat_l_pz	epicondMed_l_px	epicondMed_l_py	epicondMed_l_pz	thighwand_l_px	thighwand_l_py	thighwand_l_pz	upperleg1_l_px	upperleg1_l_py	upperleg1_l_pz	upperleg2_l_px	upperleg2_l_py	upperleg2_l_pz	malleolusLat_l_px	malleolusLat_l_py	malleolusLat_l_pz	malleolusMedv_l_px	malleolusMedv_l_py	malleolusMedv_l_pz	shankwand_l_px	shankwand_l_py	shankwand_l_pz	lowerleg1_l_px	lowerleg1_l_py	lowerleg1_l_pz	knee_l_px	knee_l_py	knee_l_pz	ankle_l_px	ankle_l_py	ankle_l_pz	toe_l_px	toe_l_py	toe_l_pz	subclavicle_r_px	subclavicle_r_py	subclavicle_r_pz	subclavicle_l_px	subclavicle_l_py	subclavicle_l_pz	neck_px	neck_py	neck_pz	sternalnotch_px	sternalnotch_py	sternalnotch_pz	xyphoidprocess_px	xyphoidprocess_py	xyphoidprocess_pz	midhip_tx	midhip_ty	midhip_tz	hip_r_tx	hip_r_ty	hip_r_tz	hip_l_tx	hip_l_ty	hip_l_tz	knee_r_tx	knee_r_ty	knee_r_tz	knee_l_tx	knee_l_ty	knee_l_tz	ankle_r_tx	ankle_r_ty	ankle_r_tz	ankle_l_tx	ankle_l_ty	ankle_l_tz	midasis_tx	midasis_ty	midasis_tz	asis_r_tx	asis_r_ty	asis_r_tz	asis_l_tx	asis_l_ty	asis_l_tz	psis_r_tx	psis_r_ty	psis_r_tz	psis_l_tx	psis_l_ty	psis_l_tz	epicondLat_r_tx	epicondLat_r_ty	epicondLat_r_tz	epicondLat_l_tx	epicondLat_l_ty	epicondLat_l_tz	epicondMed_r_tx	epicondMed_r_ty	epicondMed_r_tz	epicondMed_l_tx	epicondMed_l_ty	epicondMed_l_tz	malleolusLat_r_tx	malleolusLat_r_ty	malleolusLat_r_tz	malleolusLat_l_tx	malleolusLat_l_ty	malleolusLat_l_tz	malleolusMedv_r_tx	malleolusMedv_r_ty	malleolusMedv_r_tz	malleolusMedv_l_tx	malleolusMedv_l_ty	malleolusMedv_l_tz	neck_tx	neck_ty	neck_tz	subclavicle_r_tx	subclavicle_r_ty	subclavicle_r_tz	subclavicle_l_tx	subclavicle_l_ty	subclavicle_l_tz	sternalnotch_tx	sternalnotch_ty	sternalnotch_tz	xyphoidprocess_tx	xyphoidprocess_ty	xyphoidprocess_tz	thighwand_r_tx	thighwand_r_ty	thighwand_r_tz	thighwand_l_tx	thighwand_l_ty	thighwand_l_tz	upperleg1_r_tx	upperleg1_r_ty	upperleg1_r_tz	upperleg1_l_tx	upperleg1_l_ty	upperleg1_l_tz	upperleg2_r_tx	upperleg2_r_ty	upperleg2_r_tz	upperleg2_l_tx	upperleg2_l_ty	upperleg2_l_tz	shankwand_r_tx	shankwand_r_ty	shankwand_r_tz	shankwand_l_tx	shankwand_l_ty	shankwand_l_tz	lowerleg1_r_tx	lowerleg1_r_ty	lowerleg1_r_tz	lowerleg1_l_tx	lowerleg1_l_ty	lowerleg1_l_tz	toe_r_tx	toe_r_ty	toe_r_tz	toe_l_tx	toe_l_ty	toe_l_tz	ground_force_vx	ground_force_vy	ground_force_vz	ground_force_px	ground_force_py	ground_force_pz	ground_force_vx	ground_force_vy	ground_force_vz	ground_force_px	ground_force_py	ground_force_pz	ground_torque_x	ground_torque_y	ground_torque_z	ground_torque_x	ground_torque_y	ground_torque_z	ground_marker_px	ground_marker_py	ground_marker_pz	ground_marker_px	ground_marker_py	ground_marker_pz	ground_marker_px	ground_marker_py	ground_marker_pz	ground_marker_px	ground_marker_py	ground_marker_pz	ground_marker_px	ground_marker_py	ground_marker_pz	ground_marker_px	ground_marker_py	ground_marker_pz	ground_marker_px	ground_marker_py	ground_marker_pz	ground_marker_px	ground_marker_py	ground_marker_pz	ground_marker_px	ground_marker_py	ground_marker_pz	ground_marker_px	ground_marker_py	ground_marker_pz	ground_marker_px	ground_marker_py	ground_marker_pz	ground_marker_px	ground_marker_py	ground_marker_pz	ground_marker_px	ground_marker_py	ground_marker_pz	ground_marker_px	ground_marker_py	ground_marker_pz	ground_marker_px	ground_marker_py	ground_marker_pz	ground_marker_px	ground_marker_py	ground_marker_pz	ground_marker_px	ground_marker_py	ground_marker_pz	ground_marker_px	ground_marker_py	ground_marker_pz	ground_marker_px	ground_marker_py	ground_marker_pz	ground_marker_px	ground_marker_py	ground_marker_pz	ground_marker_px	ground_marker_py	ground_marker_pz	ground_marker_px	ground_marker_py	ground_marker_pz	ground_marker_px	ground_marker_py	ground_marker_pz	ground_marker_px	ground_marker_py	ground_marker_pz	ground_marker_px	ground_marker_py	ground_marker_pz	ground_marker_px	ground_marker_py	ground_marker_pz	ground_marker_px	ground_marker_py	ground_marker_pz	ground_marker_px	ground_marker_py	ground_marker_pz	ground_marker_px	ground_marker_py	ground_marker_pz	ground_marker_px	ground_marker_py	ground_marker_pz	ground_marker_px	ground_marker_py	ground_marker_pz	ground_marker_px	ground_marker_py	ground_marker_pz	ground_marker_px	ground_marker_py	ground_marker_pz	ground_marker_px	ground_marker_py	ground_marker_pz	ground_marker_px	ground_marker_py	ground_marker_pz	ground_marker_px	ground_marker_py	ground_marker_pz	ground_marker_px	ground_marker_py	ground_marker_pz
      1.20000000	      1.41165308	      0.89643665	     -0.22204259	      3.51777404	      0.39369452	     -1.55113332	     15.50925289	     -2.67539304	     -0.32037402	    -58.48305542	      7.39000800	     -1.01194065	      4.39225954	     -0.12248556	    -13.62115737	     10.04758604	     -9.81120272	      0.87326422	      6.52602891	      0.00000000	      0.00000000	      0.00000000	      0.00000000	      1.45781365	      0.90202737	     -0.12793075	      1.44566531	      0.89657313	     -0.32919935	      1.42266211	      0.89711136	     -0.22174393	      1.29972217	      0.94274624	     -0.19599331	      1.29607617	      0.94196165	     -0.25077288	      1.35750357	      0.84047331	     -0.15812617	      1.36100413	      0.84159424	     -0.28969145	      1.35925385	      0.84103377	     -0.22390881	      1.50760195	      0.48228094	     -0.07651170	      1.48900841	      0.46387106	     -0.18287774	      1.58471259	      0.67740612	     -0.15130357	      1.49956994	      0.70797464	     -0.10594175	      1.51504637	      0.62362638	     -0.09895482	      1.20962204	      0.16884233	     -0.10327617	      1.24782681	      0.15645902	     -0.16480930	      1.28206238	      0.26588453	     -0.02935139	      1.29279945	      0.26653167	     -0.07030667	      1.48519783	      0.48014490	     -0.13990697	      1.23143336	      0.17213714	     -0.14144239	      1.30145583	      0.08412659	     -0.08123230	      1.39544212	      0.45335928	     -0.32314990	      1.37771168	      0.44750893	     -0.21544549	      1.51458198	      0.62399987	     -0.26184488	      1.44403159	      0.66154272	     -0.32380785	      1.44530682	      0.57426655	     -0.31192037	      1.28793504	      0.06024891	     -0.28056275	      1.31611153	      0.07052347	     -0.21958511	      1.26613667	      0.17932148	     -0.34589485	      1.28545170	      0.18409522	     -0.30747453	      1.37435260	      0.46774439	     -0.26378813	      1.29660509	      0.07707612	     -0.23926935	      1.41197857	      0.02864191	     -0.28822260	      1.40215422	      1.28689500	     -0.16167423	      1.39559097	      1.28800845	     -0.27068659	      1.29303987	      1.33202275	     -0.20499360	      1.38253711	      1.29513494	     -0.22034516	      1.47348113	      1.14557951	     -0.22609966	      1.36144600	      0.84303200	     -0.22445100	      1.36582500	      0.82605300	     -0.16469400	      1.35924100	      0.82479700	     -0.28197400	      1.48557900	      0.46715500	     -0.14275300	      1.37337900	      0.46777600	     -0.25724500	      1.23891300	      0.17325500	     -0.14957100	      1.29325900	      0.06848600	     -0.23199000	      1.42009400	      0.90711700	     -0.22147100	      1.41729100	      0.90681400	     -0.12150600	      1.42289800	      0.90742100	     -0.32143700	      1.26045500	      0.93050800	     -0.19494400	      1.26169000	      0.93247800	     -0.25020300	      1.49181000	      0.47255800	     -0.08837500	      1.38863600	      0.46476200	     -0.30947900	      1.49122400	      0.45774200	     -0.19560900	      1.35655000	      0.45459000	     -0.21710800	      1.22867800	      0.18100300	     -0.11327400	      1.29903400	      0.06493000	     -0.26988800	      1.26571000	      0.17485400	     -0.17645700	      1.31139600	      0.08058000	     -0.20625500	      1.29628300	      1.34464000	     -0.20432400	      1.40165700	      1.27538900	     -0.16366800	      1.39509400	      1.27614400	     -0.27014800	      1.38276700	      1.28613500	     -0.22096000	      1.44340100	      1.12157000	     -0.22491600	      1.56968300	      0.67572000	     -0.15043200	      1.49686100	      0.63460400	     -0.23758700	      1.48419400	      0.69668200	     -0.10435100	      1.43547600	      0.67201500	     -0.30876000	      1.50551200	      0.61394300	     -0.10269000	      1.43608300	      0.58409600	     -0.29864900	      1.29873300	      0.28073900	     -0.04332100	      1.28991000	      0.18053600	     -0.34545800	      1.30938900	      0.28243200	     -0.08432200	      1.29875200	      0.18773100	     -0.30410700	      1.31638400	      0.09716000	     -0.10661600	      1.42012400	      0.03727400	     -0.23783000	      0.00000000	      0.00000000	      0.00000000	      1.01255206	      0.00000000	     -0.14975488	    -17.53348367	    384.46823051	      6.85665936	      1.39547925	      0.00000000	     -0.23908531	      0.00000000	      0.00000000	      0.00000000	      0.00000000	     -0.59552014	      0.00000000	      1.36144614	      0.84303176	     -0.22445136	      1.36582470	      0.82605290	     -0.16469364	      1.35924077	      0.82479727	     -0.28197405	      1.48557866	      0.46715471	     -0.14275289	      1.37337875	      0.46777576	     -0.25724536	      1.23891318	      0.17325467	     -0.14957061	      1.29325902	      0.06848565	     -0.23198971	      1.42009449	      0.90711749	     -0.22147131	      1.41729093	      0.90681374	     -0.12150578	      1.42289805	      0.90742117	     -0.32143685	      1.26045549	      0.93050808	     -0.19494446	      1.26169026	      0.93247777	     -0.25020289	      1.49181032	      0.47255838	     -0.08837488	      1.38863599	      0.46476200	     -0.30947933	      1.49122417	      0.45774156	     -0.19560902	      1.35654986	      0.45458955	     -0.21710823	      1.22867823	      0.18100265	     -0.11327371	      1.29903364	      0.06492983	     -0.26988772	      1.26571023	      0.17485388	     -0.17645666	      1.31139612	      0.08057968	     -0.20625478	      1.29628277	      1.34464014	     -0.20432356	      1.40165722	      1.27538896	     -0.16366777	      1.39509368	      1.27614415	     -0.27014777	      1.38276684	      1.28613460	     -0.22095986	      1.44340134	      1.12156951	     -0.22491589	      1.56968284	      0.67571962	     -0.15043242	      1.49686050	      0.63460350	     -0.23758703	      1.48419380	      0.69668204	     -0.10435091	      1.43547571	      0.67201495	     -0.30875993	      1.50551152	      0.61394268	     -0.10269044	      1.43608320	      0.58409637	     -0.29864860	      1.29873252	      0.28073853	     -0.04332059	      1.28991032	      0.18053582	     -0.34545776	      1.30938852	      0.28243211	     -0.08432151	      1.29875231	      0.18773109	     -0.30410707	      1.31638443	      0.09715958	     -0.10661637	      1.42012358	      0.03727387	     -0.23783040
      1.20833000	      1.41625735	      0.89638164	     -0.22249769	      3.65437609	      0.30801563	     -1.39981946	     16.17036181	     -2.48528970	     -0.18672416	    -57.91267986	      7.55553015	     -1.61164729	      4.34696870	     -0.01981660	    -13.41737899	     10.24652701	    -10.01065041	      0.97912215	      6.46454851	      0.00000000	      0.00000000	      0.00000000	      0.00000000	      1.46264328	      0.90223933	     -0.12851297	      1.44999685	      0.89642173	     -0.32974071	      1.42726545	      0.89708325	     -0.22222815	      1.30428204	      0.94246586	     -0.19624038	      1.30049880	      0.94158156	     -0.25100912	      1.36240499	      0.84039482	     -0.15835119	      1.36556863	      0.84130566	     -0.28992663	      1.36398681	      0.84085024	     -0.22413891	      1.51793982	      0.48429598	     -0.07776119	      1.49899216	      0.46566809	     -0.18402674	      1.59189631	      0.68050267	     -0.15290825	      1.50659916	      0.70986682	     -0.10704385	      1.52328761	      0.62573954	     -0.10018369	      1.22727820	      0.16420615	     -0.10273895	      1.26539235	      0.15273094	     -0.16450389	      1.29783172	      0.26295662	     -0.02925284	      1.30830090	      0.26385523	     -0.07027268	      1.49512235	      0.48198920	     -0.14103474	      1.24877209	      0.16801612	     -0.14103708	      1.32147408	      0.08195107	     -0.08119157	      1.39690244	      0.45279242	     -0.32320562	      1.37921995	      0.44713997	     -0.21548276	      1.51744296	      0.62251689	     -0.26209575	      1.44713816	      0.66058422	     -0.32401784	      1.44773265	      0.57330702	     -0.31208443	      1.28772121	      0.06026807	     -0.28025589	      1.31601017	      0.07045773	     -0.21931609	      1.26637080	      0.17939366	     -0.34563924	      1.28574925	      0.18410709	     -0.30724342	      1.37593764	      0.46739237	     -0.26383562	      1.29651067	      0.07708321	     -0.23898281	      1.41174402	      0.02852116	     -0.28813905	      1.40704498	      1.28654982	     -0.16206261	      1.40034132	      1.28768652	     -0.27106619	      1.29792249	      1.33180001	     -0.20523352	      1.38736044	      1.29481937	     -0.22070678	      1.47813785	      1.14516820	     -0.22660154	      1.36619200	      0.84283100	     -0.22451700	      1.37079400	      0.82597600	     -0.16461100	      1.36387200	      0.82452300	     -0.28186900	      1.49565200	      0.46879700	     -0.14350600	      1.37515800	      0.46750400	     -0.25698500	      1.25606700	      0.16906700	     -0.14968100	      1.29326700	      0.06856500	     -0.23183400	      1.42470700	      0.90708000	     -0.22167100	      1.42219400	      0.90692400	     -0.12167100	      1.42722000	      0.90723600	     -0.32167100	      1.26512200	      0.93005300	     -0.19455500	      1.26614600	      0.93209900	     -0.24972600	      1.50214500	      0.47427800	     -0.08916600	      1.39032800	      0.46434200	     -0.30923600	      1.50128100	      0.45960500	     -0.19649600	      1.35724800	      0.45504900	     -0.21651800	      1.24576400	      0.17655400	     -0.11334900	      1.29905300	      0.06498800	     -0.26972800	      1.28258000	      0.17134100	     -0.17671800	      1.31128800	      0.08045100	     -0.20603200	      1.30117000	      1.34453200	     -0.20454100	      1.40655900	      1.27511700	     -0.16413800	      1.39986400	      1.27583400	     -0.27059600	      1.38759500	      1.28586300	     -0.22136800	      1.44802300	      1.12121600	     -0.22536300	      1.57683600	      0.67856100	     -0.15165500	      1.49998900	      0.63343100	     -0.23756700	      1.49129900	      0.69834300	     -0.10510600	      1.43878400	      0.67142100	     -0.30864600	      1.51378400	      0.61601100	     -0.10358900	      1.43824700	      0.58329500	     -0.29842400	      1.31361700	      0.27788800	     -0.04360000	      1.29046800	      0.18052400	     -0.34527900	      1.32410500	      0.27983000	     -0.08459800	      1.29927200	      0.18773100	     -0.30392400	      1.33562700	      0.09513100	     -0.10674400	      1.41994200	      0.03724000	     -0.23784800	      0.00000000	      0.00000000	      0.00000000	      1.01416675	      0.00000000	     -0.14976706	    -16.25960661	    385.66980766	      6.43281635	      1.39619702	      0.00000000	     -0.23845132	      0.00000000	      0.00000000	      0.00000000	      0.00000000	     -0.66650098	      0.00000000	      1.36619186	      0.84283054	     -0.22451654	      1.37079382	      0.82597560	     -0.16461058	      1.36387205	      0.82452309	     -0.28186929	      1.49565220	      0.46879697	     -0.14350562	      1.37515795	      0.46750441	     -0.25698546	      1.25606692	      0.16906717	     -0.14968105	      1.29326725	      0.06856472	     -0.23183393	      1.42470658	      0.90708005	     -0.22167067	      1.42219353	      0.90692431	     -0.12167073	      1.42721963	      0.90723580	     -0.32167062	      1.26512206	      0.93005258	     -0.19455495	      1.26614583	      0.93209946	     -0.24972610	      1.50214541	      0.47427759	     -0.08916592	      1.39032793	      0.46434218	     -0.30923602	      1.50128126	      0.45960504	     -0.19649559	      1.35724831	      0.45504898	     -0.21651798	      1.24576378	      0.17655435	     -0.11334874	      1.29905307	      0.06498795	     -0.26972827	      1.28257966	      0.17134079	     -0.17671755	      1.31128824	      0.08045062	     -0.20603190	      1.30116987	      1.34453249	     -0.20454100	      1.40655851	      1.27511740	     -0.16413794	      1.39986408	      1.27583432	     -0.27059570	      1.38759494	      1.28586280	     -0.22136776	      1.44802344	      1.12121594	     -0.22536281	      1.57683575	      0.67856067	     -0.15165454	      1.49998856	      0.63343114	     -0.23756683	      1.49129939	      0.69834340	     -0.10510611	      1.43878353	      0.67142081	     -0.30864587	      1.51378441	      0.61601096	     -0.10358856	      1.43824685	      0.58329546	     -0.29842404	      1.31361735	      0.27788794	     -0.04359967	      1.29046810	      0.18052357	     -0.34527883	      1.32410538	      0.27983034	     -0.08459830	      1.29927170	      0.18773131	     -0.30392388	      1.33562684	      0.09513063	     -0.10674382	      1.41994178	      0.03724043	     -0.23784795
      1.21667000	      1.42083101	      0.89626358	     -0.22293257	      3.77981620	      0.22216190	     -1.24008717	     16.80343780	     -2.29655664	     -0.07500949	    -57.24208957	      7.68008110	     -2.18667831	      4.29423506	      0.07790333	    -13.23699614	     10.45224228	    -10.20264856	      1.08561170	      6.32907155	      0.00000000	      0.00000000	      0.00000000	      0.00000000	      1.46745590	      0.90238109	     -0.12908276	      1.45428249	      0.89619784	     -0.33026578	      1.43183822	      0.89698986	     -0.22269379	      1.30882523	      0.94214537	     -0.19645166	      1.30489702	      0.94116079	     -0.25120849	      1.36727449	      0.84026620	     -0.15854805	      1.37008310	      0.84096308	     -0.29013286	      1.36867880	      0.84061464	     -0.22434046	      1.52795761	      0.48622130	     -0.07901591	      1.50866487	      0.46739262	     -0.18518393	      1.59888923	      0.68342430	     -0.15447047	      1.51346837	      0.71163553	     -0.10811528	      1.53130712	      0.62773348	     -0.10139293	      1.24511453	      0.15941771	     -0.10231335	      1.28313404	      0.14889364	     -0.16430559	      1.31362142	      0.25989910	     -0.02923831	      1.32382026	      0.26105674	     -0.07031972	      1.50472131	      0.48377688	     -0.14217028	      1.26627812	      0.16376073	     -0.14073848	      1.34163034	      0.07972523	     -0.08128819	      1.39839229	      0.45220464	     -0.32325829	      1.38078281	      0.44673935	     -0.21551380	      1.52030021	      0.62102592	     -0.26235952	      1.45022363	      0.65960351	     -0.32422449	      1.45015975	      0.57232999	     -0.31224969	      1.28747842	      0.06028086	     -0.27995282	      1.31589228	      0.07037548	     -0.21905533	      1.26658578	      0.17946609	     -0.34537536	      1.28603513	      0.18411258	     -0.30700725	      1.37756783	      0.46700847	     -0.26387482	      1.29639770	      0.07707872	     -0.23870057	      1.41147697	      0.02838596	     -0.28808792	      1.41188132	      1.28615972	     -0.16238875	      1.40516273	      1.28730259	     -0.27139134	      1.30280542	      1.33153690	     -0.20554409	      1.39219772	      1.29445140	     -0.22103011	      1.48279908	      1.14469403	     -0.22693608	      1.37090100	      0.84259300	     -0.22460100	      1.37574100	      0.82586900	     -0.16449600	      1.36846700	      0.82422400	     -0.28173000	      1.50544000	      0.47038400	     -0.14428900	      1.37698400	      0.46721700	     -0.25672700	      1.27336400	      0.16469200	     -0.14984700	      1.29325000	      0.06864300	     -0.23168400	      1.42930400	      0.90700400	     -0.22184100	      1.42709400	      0.90699400	     -0.12181000	      1.43151500	      0.90701300	     -0.32187200	      1.26978900	      0.92958500	     -0.19414200	      1.27059500	      0.93172000	     -0.24920500	      1.51218500	      0.47593200	     -0.08998700	      1.39205600	      0.46391600	     -0.30899700	      1.51093700	      0.46140200	     -0.19740400	      1.35896500	      0.45516400	     -0.21608700	      1.26299200	      0.17190400	     -0.11347800	      1.29906000	      0.06504100	     -0.26957300	      1.29963700	      0.16756900	     -0.17701600	      1.31154900	      0.08021200	     -0.20584000	      1.30614300	      1.34434600	     -0.20479800	      1.41147500	      1.27483000	     -0.16452500	      1.40454600	      1.27542400	     -0.27097400	      1.39241200	      1.28555600	     -0.22176200	      1.45255100	      1.12078300	     -0.22564800	      1.58382000	      0.68126500	     -0.15283800	      1.50314000	      0.63223300	     -0.23755000	      1.49827400	      0.69991800	     -0.10580900	      1.44205100	      0.67078600	     -0.30851000	      1.52184300	      0.61792300	     -0.10446100	      1.44081600	      0.58273400	     -0.29825300	      1.32849700	      0.27485000	     -0.04392200	      1.29106100	      0.18050600	     -0.34511100	      1.33878500	      0.27710200	     -0.08496100	      1.29983000	      0.18770300	     -0.30372300	      1.35497800	      0.09299100	     -0.10692800	      1.41972300	      0.03719700	     -0.23789400	      0.00000000	      0.00000000	      0.00000000	      1.01575458	      0.00000000	     -0.14978079	    -15.01575232	    386.65253747	      6.15780414	      1.39697571	      0.00000000	     -0.23785318	      0.00000000	      0.00000000	      0.00000000	      0.00000000	     -0.72764709	      0.00000000	      1.37090135	      0.84259307	     -0.22460121	      1.37574077	      0.82586920	     -0.16449553	      1.36846709	      0.82422423	     -0.28173041	      1.50544012	      0.47038403	     -0.14428893	      1.37698412	      0.46721727	     -0.25672695	      1.27336359	      0.16469176	     -0.14984670	      1.29324996	      0.06864262	     -0.23168445	      1.42930448	      0.90700364	     -0.22184095	      1.42709410	      0.90699381	     -0.12180971	      1.43151486	      0.90701342	     -0.32187220	      1.26978898	      0.92958492	     -0.19414161	      1.27059472	      0.93171984	     -0.24920459	      1.51218534	      0.47593173	     -0.08998677	      1.39205635	      0.46391603	     -0.30899718	      1.51093733	      0.46140236	     -0.19740376	      1.35896540	      0.45516354	     -0.21608672	      1.26299214	      0.17190443	     -0.11347833	      1.29906046	      0.06504143	     -0.26957273	      1.29963672	      0.16756944	     -0.17701571	      1.31154871	      0.08021168	     -0.20584020	      1.30614340	      1.34434569	     -0.20479813	      1.41147470	      1.27483046	     -0.16452472	      1.40454650	      1.27542353	     -0.27097425	      1.39241242	      1.28555608	     -0.22176208	      1.45255125	      1.12078345	     -0.22564821	      1.58382010	      0.68126529	     -0.15283759	      1.50314033	      0.63223290	     -0.23755026	      1.49827421	      0.69991791	     -0.10580944	      1.44205141	      0.67078596	     -0.30850986	      1.52184308	      0.61792278	     -0.10446072	      1.44081628	      0.58273399	     -0.29825255	      1.32849717	      0.27485040	     -0.04392192	      1.29106069	      0.18050587	     -0.34511119	      1.33878517	      0.27710170	     -0.08496113	      1.29983008	      0.18770340	     -0.30372277	      1.35497820	      0.09299085	     -0.10692822	      1.41972327	      0.03719667	     -0.23789440
